<svg width="60" height="60" viewBox="0 0 60 60" fill="none" xmlns="http://www.w3.org/2000/svg">
<path d="M7.5 30H20M7.5 30C7.5 42.4264 17.5736 52.5 30 52.5M7.5 30C7.5 17.5736 17.5736 7.5 30 7.5M20 30H40M20 30C20 42.4264 24.4772 52.5 30 52.5M20 30C20 17.5736 24.4772 7.5 30 7.5M40 30H52.5M40 30C40 17.5736 35.5228 7.5 30 7.5M40 30C40 42.4264 35.5228 52.5 30 52.5M52.5 30C52.5 17.5736 42.4264 7.5 30 7.5M52.5 30C52.5 42.4264 42.4264 52.5 30 52.5" stroke="#87A79E" stroke-width="2" stroke-linecap="round" stroke-linejoin="round"/>
</svg>
