<svg width="35" height="35" viewBox="0 0 35 35" fill="none" xmlns="http://www.w3.org/2000/svg">
<g clip-path="url(#clip0_8_146)">
<path fill-rule="evenodd" clip-rule="evenodd" d="M5 15C5 9.47715 9.47715 5 15 5C20.5228 5 25 9.47715 25 15C25 20.5228 20.5228 25 15 25C9.47715 25 5 20.5228 5 15ZM15 0C6.71573 0 0 6.71573 0 15C0 23.2843 6.71573 30 15 30C18.2395 30 21.2391 28.973 23.6911 27.227L30.7323 34.2683C31.7085 35.2445 33.2915 35.2445 34.2677 34.2683C35.244 33.292 35.244 31.709 34.2677 30.7328L27.2268 23.6916C28.973 21.2395 30 18.2397 30 15C30 6.71573 23.2843 0 15 0Z" fill="#87A79E"/>
</g>
<defs>
<clipPath id="clip0_8_146">
<rect width="35" height="35" fill="white"/>
</clipPath>
</defs>
</svg>
